# xmcd
#
# Track frame offsets:
#	150
#	11472
#	26512
#	42232
#	62475
#	76785
#	90735
#	102167
#	122217
#	138140
#	151197
#	166210
#	182497
#	200417
#	216645
#
# Disc length: 3544 seconds
#
# Revision: 1
# Processed by: cddbd v1.4PL0 Copyright (c) Steve Scherf et al.
# Submitted via: audiograbber 1.80.04
#
DISCID=b90dd60f
DTITLE=Country pisnicky - ...z radia
DYEAR=1997
DGENRE=Country
TTITLE0=KTO - Zradny banjo
TTITLE1=Vera Martinova - Az na vrcholky hor
TTITLE2=Country Dedows - Pohoda
TTITLE3=Mirek Hoffman - Pastor z Little Fort
TTITLE4=Jindra Stahlavsky - Nebeska brana
TTITLE5=Mustangove - Pojd bliz
TTITLE6=Doklobouku - Bily kone
TTITLE7=Netto - Roky jdou dal
TTITLE8=Kocabka - Rekni, kde ty kytky jsou
TTITLE9=Michal Tucny - Slamu v botach nosim
TTITLE10=Milan Dufek - Poutnik s kytarou
TTITLE11=Fragment - Vune leta
TTITLE12=Zelenaci Mirka Hoffmana - Cerna barva smuly
TTITLE13=Rattlesnake Annie and Michal Tucny - Long Black Limousine
TTITLE14=Stare sedlo - smes
EXTD=
EXTT0=
EXTT1=
EXTT2=
EXTT3=
EXTT4=
EXTT5=
EXTT6=
EXTT7=
EXTT8=
EXTT9=
EXTT10=
EXTT11=
EXTT12=
EXTT13=
EXTT14=
PLAYORDER=
